HIERARCHY
ROOT root
{
	OFFSET	0	13.1	24.9
	CHANNELS 6  Xposition Yposition Zposition Xrotation Yrotation Zrotation
	JOINT spine_1
	{
		OFFSET	0	9.99999	0
		CHANNELS 3  Xrotation Yrotation Zrotation
		JOINT spine_2
		{
			OFFSET	0	112	-10
			CHANNELS 3  Xrotation Yrotation Zrotation
			JOINT spine_3
			{
				OFFSET	0	206.5	19.3
				CHANNELS 3  Xrotation Yrotation Zrotation
				JOINT spine_4
				{
					OFFSET	0	110.4	14.6
					CHANNELS 3  Xrotation Yrotation Zrotation
					JOINT neck_1
					{
						OFFSET	0	71.8	-50.3
						CHANNELS 3  Xrotation Yrotation Zrotation
						JOINT neck_2
						{
							OFFSET	0	86.2	-25.8
							CHANNELS 3  Xrotation Yrotation Zrotation
							JOINT head_ee
							{
								OFFSET	0	179.8	-8.7
								CHANNELS 3  Xrotation Yrotation Zrotation
								End Site
								{
									OFFSET	1	0	0
								}
							}
						}
					}
					JOINT left_clavicle
					{
						OFFSET	-43.2	22.4	-70.8
						CHANNELS 3  Xrotation Yrotation Zrotation
						JOINT left_shoulder
						{
							OFFSET	-93.9	-5.79999	48.7
							CHANNELS 3  Xrotation Yrotation Zrotation
							JOINT left_elbow
							{
								OFFSET	-291.4	-30.8	15.2
								CHANNELS 3  Xrotation Yrotation Zrotation
								JOINT left_lowarm_twist
								{
									OFFSET	-110.7	-3.89999	13.6
									CHANNELS 3  Xrotation Yrotation Zrotation
									JOINT left_hand
									{
										OFFSET	-110.7	-3.89999	13.6
										CHANNELS 3  Xrotation Yrotation Zrotation
										JOINT left_ee
										{
											OFFSET	-80.8	-5.10001	12.1
											CHANNELS 3  Xrotation Yrotation Zrotation
											End Site
											{
												OFFSET	1	0	0
											}
										}
									}
								}
							}
						}
					}
					JOINT right_clavicle
					{
						OFFSET	43.2	22.4	-70.8
						CHANNELS 3  Xrotation Yrotation Zrotation
						JOINT right_shoulder
						{
							OFFSET	93.9	-5.79999	48.7
							CHANNELS 3  Xrotation Yrotation Zrotation
							JOINT right_elbow
							{
								OFFSET	291.4	-30.8	15.2
								CHANNELS 3  Xrotation Yrotation Zrotation
								JOINT right_lowarm_twist
								{
									OFFSET	110.7	-3.89999	13.6
									CHANNELS 3  Xrotation Yrotation Zrotation
									JOINT right_hand
									{
										OFFSET	110.7	-3.89999	13.6
										CHANNELS 3  Xrotation Yrotation Zrotation
										JOINT right_ee
										{
											OFFSET	80.8	-5.10001	12.1
											CHANNELS 3  Xrotation Yrotation Zrotation
											End Site
											{
												OFFSET	1	0	0
											}
										}
									}
								}
							}
						}
					}
				}
			}
		}
	}
	JOINT left_hip
	{
		OFFSET	-82.8	-127.5	0.300001
		CHANNELS 3  Xrotation Yrotation Zrotation
		JOINT left_knee
		{
			OFFSET	-28.2	-396.7	2.2
			CHANNELS 3  Xrotation Yrotation Zrotation
			JOINT left_ankle
			{
				OFFSET	-11.7	-411.3	35.4
				CHANNELS 3  Xrotation Yrotation Zrotation
				JOINT left_toes
				{
					OFFSET	0	-60	-88.6
					CHANNELS 3  Xrotation Yrotation Zrotation
					JOINT left_foot_ee
					{
						OFFSET	-22.5	-16.5	-42.2
						CHANNELS 3  Xrotation Yrotation Zrotation
						End Site
						{
							OFFSET	1	0	0
						}
					}
				}
			}
		}
	}
	JOINT right_hip
	{
		OFFSET	82.8	-127.5	0.300001
		CHANNELS 3  Xrotation Yrotation Zrotation
		JOINT right_knee
		{
			OFFSET	28.2	-396.7	2.2
			CHANNELS 3  Xrotation Yrotation Zrotation
			JOINT right_ankle
			{
				OFFSET	11.7	-411.3	35.4
				CHANNELS 3  Xrotation Yrotation Zrotation
				JOINT right_toes
				{
					OFFSET	0	-60	-88.6
					CHANNELS 3  Xrotation Yrotation Zrotation
					JOINT right_foot_ee
					{
						OFFSET	22.5	-16.5	-42.2
						CHANNELS 3  Xrotation Yrotation Zrotation
						End Site
						{
							OFFSET	1	0	0
						}
					}
				}
			}
		}
	}
}
MOTION
Frames: 14
Frame Time: 0.02
3194.93 681.995 -1581.46 -10.9619 58.926 11.2117 3.20916 0.322015 0.422207 3.20921 0.294497 0.441842 3.21148 0.222424 0.482161 3.21128 0.29578 0.440984 -17.6773 20.686 4.47199 -19.5722 37.3582 12.8575 -0.0 0.0 -0.0 -3.6682 18.4703 -3.3981 -30.3327 -22.8901 80.7228 0.408477 -11.4394 0.0409135 -19.3056 -1.06432 2.21564 1.99271 12.538 18.058 -0.0 0.0 -0.0 7.65532 28.3955 -13.4072 -1.04687 24.9738 -71.8616 2.14715 46.7603 -0.928358 7.40801 -0.201493 0.924179 1.34296 -21.8157 -16.8367 0.0 0.0 0.0 28.5332 3.38208 -13.5025 -8.10476 0.24788 1.2181 5.63443 17.4765 -0.823088 -14.4453 0.0 0.0 -0.0 0.0 -0.0 -10.1919 40.6412 4.39604 -21.2168 -0.279193 -3.22533 32.5144 -1.26461 4.16414 40.0905 -0.0 -0.0 0.0 0.0 0.0 
3175.72 681.491 -1581.22 -11.2342 58.8391 11.5991 3.36772 0.321499 0.466769 3.3678 0.291146 0.48628 3.37025 0.21368 0.524952 3.36999 0.293903 0.484619 -18.5935 20.6024 5.71137 -20.5181 36.6635 14.2776 -0.0 0.0 -0.0 -3.66826 18.2129 -3.45341 -28.7701 -22.7094 80.1589 0.387354 -10.8623 0.0368283 -19.3128 -1.06485 2.21639 1.96467 12.2988 17.7904 -0.0 0.0 -0.0 7.55146 28.4051 -13.1782 -0.520617 25.4128 -72.8021 1.92955 43.702 -0.773819 7.63327 -0.205738 0.952641 1.06365 -22.3742 -15.3049 0.0 0.0 0.0 28.0482 3.85848 -13.0951 -9.02766 0.26511 1.35867 5.85854 17.8682 -0.856265 -13.921 0.0 0.0 -0.0 0.0 -0.0 -9.49563 41.7817 3.4899 -22.3934 -0.259536 -3.40481 32.8082 -0.677101 4.19757 39.9383 -0.0 -0.0 0.0 0.0 0.0 
3158.52 682.127 -1579.65 -10.8626 57.4021 11.8417 3.30672 0.644272 0.470118 3.30663 0.613052 0.510162 3.31216 0.527604 0.598108 3.31219 0.615441 0.507278 -18.6651 20.5504 4.40884 -20.7353 37.2413 13.1543 -0.0 0.0 -0.0 -3.65096 18.1748 -3.435 -27.0714 -22.5565 79.5693 0.385071 -10.7998 0.0363994 -18.071 -0.974347 2.08564 1.70618 9.84542 15.2133 -0.0 0.0 -0.0 7.44545 28.8144 -12.8992 -0.526479 26.359 -73.0056 1.7507 40.9297 -0.65338 8.6641 -0.223733 1.08309 1.21883 -21.6872 -16.0348 0.0 0.0 0.0 31.1925 3.01872 -14.3655 -20.4351 0.290212 3.1059 10.6685 18.1521 -1.53768 -11.7273 0.0 0.0 -0.0 0.0 -0.0 -10.8406 42.3957 4.00503 -21.8439 -0.269175 -3.32104 32.8964 -1.74248 4.20024 38.8334 -0.0 -0.0 0.0 0.0 0.0 
3126.18 683.233 -1575.08 -9.07127 58.3907 10.0255 2.89516 0.3266 0.581603 2.8953 0.288929 0.601206 2.89831 0.188721 0.639774 2.89786 0.287392 0.601942 -17.172 20.6997 4.18293 -18.9957 37.4785 12.3956 -0.0 0.0 -0.0 -3.91532 18.0313 -3.87306 -26.7863 -22.6892 79.8074 0.447288 -12.4936 0.048961 -17.8024 -0.955144 2.0571 1.73545 7.54984 14.5784 -0.0 0.0 -0.0 7.21985 29.0854 -12.3741 -0.866621 27.4907 -73.3126 1.58741 38.1771 -0.549365 8.63398 -0.22324 1.07927 0.758067 -22.5216 -13.5118 0.0 0.0 0.0 31.087 3.32757 -13.0086 -29.6678 0.0566477 4.50201 8.00679 19.1549 -1.1677 -10.0649 0.0 0.0 -0.0 0.0 -0.0 -10.4488 45.4849 2.83518 -29.9053 -0.047684 -4.53735 32.554 -5.37187 4.15503 37.791 -0.0 -0.0 0.0 0.0 0.0 
3110.02 686.388 -1573.75 -7.61833 58.7089 8.74854 2.49058 0.375471 0.621558 2.49073 0.335159 0.644189 2.49451 0.222594 0.691203 2.494 0.328961 0.647376 -15.904 21.0134 4.71402 -17.4838 37.6197 12.4752 -0.0 0.0 -0.0 -5.22477 17.5104 -6.03763 -20.1672 -23.3182 81.5563 0.370633 -10.4039 0.0337431 -18.0027 -0.969449 2.07839 1.1493 6.89422 10.4185 -0.0 0.0 -0.0 6.83269 29.8593 -11.4383 -1.10757 32.1532 -72.9093 1.42895 35.291 -0.454558 10.5765 -0.250888 1.32584 1.23229 -25.8918 -17.3773 0.0 0.0 0.0 30.8288 3.39402 -12.6993 -31.4034 -0.0122391 4.75944 1.16576 22.7623 -0.17563 -11.0854 0.0 0.0 -0.0 0.0 -0.0 -10.5757 47.2239 2.13582 -32.6647 0.0671904 -4.94519 27.9531 -17.3978 3.7341 36.3279 -0.0 -0.0 0.0 0.0 0.0 
3089.87 687.308 -1570.2 -7.6863 59.8733 8.36078 2.41157 0.255045 0.855263 2.41195 0.200108 0.869758 2.41496 0.0504389 0.891053 2.4139 0.190526 0.871907 -15.6462 20.9934 4.2473 -17.2134 37.8069 11.9447 -0.0 0.0 -0.0 -5.22377 17.1223 -6.13599 -18.1956 -23.0435 80.2666 0.388876 -10.904 0.0371158 -17.886 -0.961105 2.06599 1.30692 5.58826 10.9675 -0.0 0.0 -0.0 7.09639 29.3629 -12.072 -2.20316 31.1049 -72.5246 1.26318 32.0345 -0.362636 11.928 -0.265187 1.49788 1.50964 -27.5659 -19.4726 0.0 0.0 0.0 30.5665 3.24317 -11.5151 -33.259 -0.094495 5.03228 0.900304 21.6704 -0.135084 -10.2491 0.0 0.0 -0.0 0.0 -0.0 -8.02749 48.4312 -0.773652 -37.0052 0.287313 -5.57445 26.7479 -22.8694 3.67938 37.2802 -0.0 -0.0 0.0 0.0 0.0 
3071.78 690.23 -1570.86 -6.58302 60.8691 7.84935 2.28227 0.11362 0.896838 2.28272 0.0563244 0.90225 2.28356 -0.0988453 0.898587 2.28243 0.0443042 0.90292 -15.2235 21.1033 4.75818 -16.6777 37.6642 12.267 -0.0 0.0 -0.0 -5.05762 14.8109 -6.4515 -14.8096 -22.8668 80.1703 0.338255 -9.51239 0.0281437 -17.5078 -0.934241 2.02571 0.904481 7.0678 8.86659 -0.0 0.0 -0.0 7.04035 29.8445 -11.8937 -3.0185 32.221 -72.3211 1.17848 30.2747 -0.318815 11.2343 -0.258354 1.40953 1.89397 -29.9273 -22.2976 0.0 0.0 0.0 26.2485 4.89075 -10.3539 -28.3493 0.103745 4.30514 2.61655 23.5996 -0.39437 -11.8981 0.0 0.0 -0.0 0.0 -0.0 -6.02465 47.9577 -5.24167 -39.0696 0.408642 -5.86761 27.1008 -27.3484 3.8205 36.0501 -0.0 -0.0 0.0 0.0 0.0 
3047.87 695.712 -1571.05 -6.28686 62.0078 7.65308 2.3194 0.349667 1.05719 2.31998 0.281691 1.07729 2.32526 0.0941014 1.10952 2.32364 0.268139 1.08074 -13.7759 20.0416 3.27227 -14.8928 36.2777 9.88322 -0.0 0.0 -0.0 -4.97585 12.798 -6.8082 -13.0511 -22.8481 79.2331 0.308628 -8.69257 0.0234567 -16.173 -0.841569 1.88213 0.698357 6.48852 7.28258 -0.0 0.0 -0.0 6.66704 29.3688 -11.1331 -4.96085 33.0213 -72.6552 1.08795 28.3212 -0.274507 10.9659 -0.255425 1.37538 2.00664 -29.8721 -22.9476 0.0 0.0 0.0 22.7847 6.03764 -9.11298 -24.5665 0.213553 3.7351 4.00117 24.0952 -0.60243 -12.1667 0.0 0.0 -0.0 0.0 -0.0 -2.93478 40.6519 -5.32384 -42.0425 0.601799 -6.28182 21.3411 -26.8489 3.07767 36.0154 -0.0 -0.0 0.0 0.0 0.0 
3008.93 705.936 -1568.39 0.427317 63.9127 0.588317 1.7945 -0.0264322 1.39287 1.79557 -0.115002 1.38837 1.79273 -0.362407 1.34517 1.79023 -0.145437 1.38551 -15.419 19.8631 3.70079 -16.7728 35.9149 10.8378 -0.0 0.0 -0.0 -4.71687 10.9444 -6.80136 -12.4601 -22.0912 79.4605 0.243258 -6.87134 0.0146042 -16.5603 -0.868113 1.92401 0.299238 6.66286 4.73362 -0.0 0.0 -0.0 5.86182 26.411 -9.69718 -7.44333 33.504 -73.1834 1.06474 27.8082 -0.263583 10.2027 -0.246218 1.27832 2.30895 -29.6163 -24.6963 0.0 0.0 0.0 12.4775 9.1967 -4.75854 -17.221 0.31837 2.61362 12.6616 24.3029 -1.85988 -16.0222 0.0 0.0 -0.0 0.0 -0.0 -1.8668 40.7358 -6.35485 -48.3557 1.082 -7.12567 28.4923 -26.358 3.96386 33.6422 -0.0 -0.0 0.0 0.0 0.0 
2989.16 712.505 -1565.77 4.66101 62.5258 -4.61807 1.55974 0.513739 1.65219 1.56117 0.40758 1.68152 1.57341 0.0926268 1.72771 1.56943 0.364285 1.69142 -17.7207 20.0965 4.91599 -19.4372 35.9938 12.9496 -0.0 0.0 -0.0 -4.11128 8.52244 -6.26758 -12.1363 -20.9649 78.3679 0.22185 -6.27168 0.0121542 -14.9632 -0.760494 1.75018 0.378698 5.07899 4.6147 -0.0 0.0 -0.0 7.27701 28.2321 -12.5957 -10.3839 30.9146 -71.5217 0.950028 25.202 -0.212379 10.7528 -0.252984 1.34827 2.70567 -27.4261 -26.7206 0.0 0.0 0.0 7.43176 11.3441 -2.43024 -14.3861 0.320261 2.17871 14.6291 25.5273 -2.14843 -20.9059 0.0 0.0 -0.0 0.0 -0.0 1.63903 42.3 -8.52256 -57.4966 1.93581 -8.24389 31.2953 -23.7637 4.22523 31.8572 -0.0 -0.0 0.0 0.0 0.0 
2967.68 719.207 -1565.26 7.89153 62.4103 -8.07169 1.05509 0.75482 1.60699 1.05629 0.651048 1.65175 1.07568 0.322383 1.74589 1.07192 0.594029 1.6731 -19.3131 19.2535 4.82306 -21.1262 34.6042 13.0541 -0.0 0.0 -0.0 -4.67301 5.57001 -7.93365 -9.72869 -19.8891 78.1166 0.375198 -10.5292 0.0345724 -12.7408 -0.618924 1.50352 0.370383 2.61637 3.55497 -0.0 0.0 -0.0 7.35862 28.2715 -12.7702 -10.9209 28.8089 -71.6212 0.85497 22.9538 -0.173589 10.8266 -0.253841 1.35766 3.3291 -27.4284 -30.757 0.0 0.0 0.0 2.88494 15.0844 -0.836058 -11.065 0.295115 1.66983 12.458 22.2925 -1.81344 -24.5913 0.0 0.0 -0.0 0.0 -0.0 3.18036 38.2852 -8.40724 -61.7861 2.39591 -8.71923 35.9261 -19.7587 4.62978 31.1049 -0.0 -0.0 0.0 0.0 0.0 
2952.69 719.194 -1562.09 9.71682 62.6675 -9.83348 0.985483 0.711878 1.68426 0.986859 0.603278 1.72613 1.00571 0.25901 1.81005 1.00154 0.54158 1.74646 -19.5937 18.2738 3.39008 -21.3515 33.4658 11.3658 -0.0 0.0 -0.0 -4.5954 2.93377 -8.35246 -6.94717 -20.6729 76.7039 0.39571 -11.0909 0.0384194 -11.8953 -0.567598 1.40828 0.164486 3.27534 2.46186 -0.0 0.0 -0.0 7.04513 27.6743 -12.1491 -13.5253 32.3272 -71.4003 0.827079 22.2793 -0.162863 9.77697 -0.240522 1.22425 3.35849 -25.9122 -30.7091 0.0 0.0 0.0 0.313844 17.452 0.365662 -9.27581 0.269357 1.39651 16.0475 22.5474 -2.30869 -26.1951 0.0 0.0 -0.0 0.0 -0.0 5.19848 38.3993 -9.60287 -65.5015 2.8224 -9.10244 37.9269 -18.2059 4.79542 31.8399 -0.0 -0.0 0.0 0.0 0.0 
2932.82 724.125 -1559.96 10.9189 62.2083 -10.9062 0.777447 0.792432 1.81281 0.779022 0.675493 1.85954 0.801858 0.297225 1.95594 0.797025 0.602345 1.8845 -20.0858 17.9885 3.59921 -21.8325 32.8513 11.5726 -0.0 0.0 -0.0 -4.82014 2.76052 -8.82308 -5.81975 -20.1447 75.8683 0.48012 -13.3787 0.0563111 -10.4939 -0.485652 1.24881 -0.210372 2.97763 -0.142443 -0.0 0.0 -0.0 6.99229 27.1837 -12.0864 -14.8559 31.1341 -71.2335 0.83106 22.3759 -0.164376 9.73781 -0.239977 1.21927 3.44216 -24.256 -30.9882 0.0 0.0 0.0 -2.5605 16.6891 1.44001 -8.3773 0.253204 1.25959 16.6521 20.9941 -2.37366 -29.5952 0.0 0.0 -0.0 0.0 -0.0 7.39869 35.5261 -9.61227 -65.9121 2.87105 -9.14308 40.0069 -16.542 4.95848 31.4192 -0.0 -0.0 0.0 0.0 0.0 
2917.21 730.119 -1558.24 12.8514 62.553 -12.8722 0.609987 0.839846 1.81765 0.611535 0.722503 1.86738 0.636124 0.336099 1.97384 0.631265 0.643556 1.89603 -20.4766 17.6936 4.05279 -22.1687 32.0924 11.9473 -0.0 0.0 -0.0 -5.07322 1.73806 -9.53676 -4.85313 -20.2416 74.4627 0.584271 -16.1422 0.0828541 -9.53889 -0.432062 1.13902 -0.136471 1.01847 -0.480087 -0.0 0.0 -0.0 7.28689 28.4758 -12.5901 -16.0247 31.678 -71.1962 0.740433 20.1425 -0.131509 9.84605 -0.241473 1.23302 3.54303 -24.6742 -31.7592 0.0 0.0 0.0 -4.53763 20.463 1.90143 -8.45222 0.254633 1.27099 21.5065 20.3751 -2.99684 -27.3891 0.0 0.0 -0.0 0.0 -0.0 9.83642 34.7665 -12.0183 -64.6859 2.72665 -9.02067 40.4549 -14.5393 4.96637 31.0144 -0.0 -0.0 0.0 0.0 0.0 
